<svg xmlns="http://www.w3.org/2000/svg" viewBox="0 0 53.32 52"><path d="M26.66,0a26.66,26.66,0,0,0-8.43,52c1.33.25,1.82-.57,1.82-1.28s0-2.31,0-4.53c-7.42,1.61-9-3.58-9-3.58-1.22-3.08-3-3.9-3-3.9C5.66,37,8.26,37,8.26,37a5.61,5.61,0,0,1,4.08,2.75c2.38,4.07,6.24,2.9,7.76,2.21a5.7,5.7,0,0,1,1.69-3.56c-5.92-.67-12.14-3-12.14-13.18a10.31,10.31,0,0,1,2.74-7.15,9.56,9.56,0,0,1,.27-7s2.23-.72,7.33,2.73a25.17,25.17,0,0,1,13.34,0c5.09-3.45,7.33-2.73,7.33-2.73a9.54,9.54,0,0,1,.26,7,10.27,10.27,0,0,1,2.74,7.15c0,10.25-6.23,12.5-12.17,13.16a6.35,6.35,0,0,1,1.81,4.94c0,3.56,0,6.44,0,7.31,0,.71.48,1.54,1.83,1.28A26.66,26.66,0,0,0,26.66,0Z" style="fill:#fff;fill-rule:evenodd"/></svg>